<svg version="1.0" xmlns="http://www.w3.org/2000/svg" width="128pt" height="128pt" viewBox="0 0 128 128" preserveAspectRatio="xMidYMid meet">
  <rect width="128" height="128" fill="none"/>
  <g transform="translate(16,16) scale(0.75)">
    <g transform="translate(0.000000,128.000000) scale(0.064000,-0.064000)" fill="#000000" stroke="none">
      <path d="M1460 1575 c-137 -28 -272 -66 -289 -83 -10 -9 -44 -51 -77 -92 -117 -149 -422 -498 -546 -626 -123 -126 -144 -154 -114 -154 7 0 20 -8 27 -17 12 15 12 16 -6 10 -22 8 -28 13 117 -110 47 -40 91 -73 98 -73 7 0 87 73 179 162 220 214 344 325 517 464 139 111 164 137 164 166 -1 7 -7 -1 -14 -18 -8 -19 -48 -57 -102 -98 l-89 -67 87 83 c77 73 88 88 94 126 5 35 10 43 24 39 15 -4 20 6 30 57 7 33 14 107 16 164 l4 102 -28 -1 c-15 0 -56 -7 -92 -14z m-351 -227 c-59 -89 -175 -233 -301 -374 -114 -129 -341 -348 -346 -335 -2 5 51 62 118 126 66 65 120 123 120 128 0 5 -8 3 -17 -4 -10 -8 18 27 61 76 43 50 135 156 204 237 68 81 128 146 132 143 5 -3 21 12 37 34 45 63 39 39 -8 -31z m264 0 c22 -24 27 -36 22 -57 -10 -41 -34 -61 -73 -61 -73 0 -97 70 -45 129 32 37 54 34 96 -11z m-418 -659 c-39 -39 -83 -80 -100 -91 -16 -11 11 21 61 71 50 50 95 91 100 91 5 0 -23 -32 -61 -71z"/>
      <path d="M1037 1292 c-49 -64 -176 -212 -267 -313 -41 -45 -66 -76 -55 -69 40 26 373 415 363 425 -2 3 -21 -17 -41 -43z"/>
      <path d="M410 1564 c0 -21 53 -245 72 -304 20 -61 26 -69 108 -137 49 -40 92 -73 98 -73 20 0 222 249 222 273 0 7 -37 50 -83 95 l-83 83 -144 29 c-80 16 -155 33 -167 36 -13 4 -23 2 -23 -2z m59 -110 c16 -89 7 -93 -13 -5 -19 82 -19 84 -7 77 5 -3 14 -36 20 -72z m275 30 c24 -24 19 -26 -21 -9 -48 20 -52 25 -20 25 14 0 33 -7 41 -16z"/>
      <path d="M1531 1234 c0 -11 3 -14 6 -6 3 7 2 16 -1 19 -3 4 -6 -2 -5 -13z"/>
      <path d="M1245 839 c-42 -33 -79 -68 -82 -77 -3 -9 -18 -30 -32 -45 l-26 -28 40 -35 c22 -19 95 -80 163 -134 l122 -100 59 63 c82 87 113 125 104 129 -5 1 -25 25 -46 53 -70 92 -200 235 -213 235 -7 0 -47 -27 -89 -61z m-61 -116 l-24 -47 22 -24 c22 -24 21 -24 -20 3 l-43 28 23 26 c19 21 59 60 64 61 1 0 -9 -21 -22 -47z m245 -255 c2 -19 -21 -4 -80 53 l-64 60 72 -53 c40 -29 72 -56 72 -60z"/>
    </g>
    <g transform="translate(108.8, 108.8) scale(0.16, -0.16)">
      <circle cx="0" cy="0" r="80" fill="#4caf50"/>
      <path d="M-40 0 h80 M0 -40 v80" stroke="white" stroke-width="20"/>
    </g>
  </g>
</svg>
